# 3ds Max Wavefront OBJ Exporter v0.97b - (c)2007 guruware
# File Created: 18.11.2018 21:06:12

#
# object akvarieboks
#

v  -49.627949 -13.114898 98.265800
v  49.487705 -13.114898 98.265800
v  -49.627953 -13.114898 -98.343948
v  49.487705 -13.114898 -98.343948
v  49.487705 23.823744 98.265800
v  -49.627949 23.823744 98.265800
v  49.487705 23.823744 -98.343941
v  -49.627953 23.823744 -98.343941
v  -48.877949 -12.364899 97.515800
v  48.737709 -12.364899 97.515800
v  -48.877953 -12.364899 -97.593948
v  48.737709 -12.364899 -97.593948
v  48.737709 23.823744 97.515800
v  -48.877949 23.823744 97.515800
v  48.737709 23.823744 -97.593948
v  -48.877953 23.823744 -97.593948
# 16 vertices

vn -0.000000 -1.000000 -0.000000
vn 0.000000 -1.000000 -0.000000
vn -0.000000 -1.000000 -0.000000
vn -0.000000 -1.000000 -0.000000
vn -0.000000 -1.000000 -0.000000
vn -0.000000 -1.000000 -0.000000
vn 0.000000 0.000000 1.000000
vn 0.000000 0.000000 1.000000
vn 0.000000 0.000000 1.000000
vn 0.000000 0.000000 1.000000
vn 0.000000 0.000000 1.000000
vn 0.000000 0.000000 1.000000
vn 1.000000 0.000000 -0.000000
vn 1.000000 0.000000 -0.000000
vn 1.000000 0.000000 -0.000000
vn 1.000000 0.000000 -0.000000
vn 1.000000 0.000000 -0.000000
vn 1.000000 0.000000 -0.000000
vn 0.000000 0.000000 -1.000000
vn 0.000000 0.000000 -1.000000
vn 0.000000 0.000000 -1.000000
vn 0.000000 0.000000 -1.000000
vn 0.000000 0.000000 -1.000000
vn 0.000000 0.000000 -1.000000
vn -1.000000 -0.000000 0.000000
vn -1.000000 0.000000 0.000000
vn -1.000000 -0.000000 0.000000
vn -1.000000 -0.000000 0.000000
vn -1.000000 -0.000000 0.000000
vn -1.000000 -0.000000 0.000000
vn 0.000000 1.000000 -0.000000
vn 0.000000 1.000000 -0.000000
vn 0.000000 1.000000 -0.000000
vn 0.000000 1.000000 -0.000000
vn 0.000000 1.000000 -0.000000
vn 0.000000 1.000000 -0.000000
vn 0.000000 0.000000 -1.000000
vn 0.000000 0.000000 -1.000000
vn 0.000000 0.000000 -1.000000
vn 0.000000 0.000000 -1.000000
vn 0.000000 0.000000 -1.000000
vn 0.000000 0.000000 -1.000000
vn -1.000000 0.000000 -0.000000
vn -1.000000 0.000000 -0.000000
vn -1.000000 0.000000 -0.000000
vn -1.000000 0.000000 -0.000000
vn -1.000000 0.000000 -0.000000
vn -1.000000 0.000000 -0.000000
vn 0.000000 -0.000000 1.000000
vn 0.000000 -0.000000 1.000000
vn 0.000000 -0.000000 1.000000
vn 0.000000 -0.000000 1.000000
vn 0.000000 -0.000000 1.000000
vn 0.000000 -0.000000 1.000000
vn 1.000000 0.000000 -0.000000
vn 1.000000 0.000000 -0.000000
vn 1.000000 0.000000 -0.000000
vn 1.000000 0.000000 -0.000000
vn 1.000000 0.000000 -0.000000
vn 1.000000 0.000000 -0.000000
vn 0.000000 1.000000 -0.000000
vn 0.000000 1.000000 -0.000000
vn 0.000000 1.000000 -0.000000
vn 0.000000 1.000000 -0.000000
vn 0.000000 1.000000 -0.000000
vn 0.000000 1.000000 -0.000000
vn 0.000000 1.000000 -0.000000
vn 0.000000 1.000000 -0.000000
vn 0.000000 1.000000 -0.000000
vn 0.000000 1.000000 -0.000000
vn 0.000000 1.000000 -0.000000
vn 0.000000 1.000000 -0.000000
vn 0.000000 1.000000 -0.000000
vn 0.000000 1.000000 -0.000000
vn 0.000000 1.000000 -0.000000
vn 0.000000 1.000000 -0.000000
vn 0.000000 1.000000 -0.000000
vn 0.000000 1.000000 -0.000000
vn 0.000000 1.000000 -0.000000
vn 0.000000 1.000000 -0.000000
vn 0.000000 1.000000 -0.000000
vn 0.000000 1.000000 -0.000000
vn 0.000000 1.000000 -0.000000
vn 0.000000 1.000000 -0.000000
# 84 vertex normals

vt -0.000000 0.006525 0.000000
vt 1.000000 0.006525 0.000000
vt 0.000000 0.006525 0.000000
vt 1.000000 0.006525 0.000000
vt 1.000000 0.993475 0.000000
vt -0.000000 0.993475 0.000000
vt 1.000000 0.993475 0.000000
vt 0.000000 0.993475 0.000000
vt 0.007567 0.026564 0.000000
vt 0.992433 0.026564 0.000000
vt 0.007567 0.026564 0.000000
vt 0.992433 0.026564 0.000000
vt 0.992433 0.993475 0.000000
vt 0.007567 0.993475 0.000000
vt 0.992433 0.993475 0.000000
vt 0.007567 0.993475 0.000000
# 16 texture coords

o akvarieboks
g akvarieboks
f 4/4/1 2/2/2 1/1/3 
f 1/1/4 3/3/5 4/4/6 
f 2/2/7 5/5/8 6/6/9 
f 6/6/10 1/1/11 2/2/12 
f 4/4/13 7/7/14 5/5/15 
f 5/5/16 2/2/17 4/4/18 
f 3/3/19 8/8/20 7/7/21 
f 7/7/22 4/4/23 3/3/24 
f 1/1/25 6/6/26 8/8/27 
f 8/8/28 3/3/29 1/1/30 
f 9/9/31 10/10/32 12/12/33 
f 12/12/34 11/11/35 9/9/36 
f 14/14/37 13/13/38 10/10/39 
f 10/10/40 9/9/41 14/14/42 
f 13/13/43 15/15/44 12/12/45 
f 12/12/46 10/10/47 13/13/48 
f 15/15/49 16/16/50 11/11/51 
f 11/11/52 12/12/53 15/15/54 
f 16/16/55 14/14/56 9/9/57 
f 9/9/58 11/11/59 16/16/60 
f 6/6/61 5/5/62 13/13/63 
f 13/13/64 14/14/65 6/6/66 
f 5/5/67 7/7/68 15/15/69 
f 15/15/70 13/13/71 5/5/72 
f 7/7/73 8/8/74 16/16/75 
f 16/16/76 15/15/77 7/7/78 
f 8/8/79 6/6/80 14/14/81 
f 14/14/82 16/16/83 8/8/84 
# 28 faces

