# 3ds Max Wavefront OBJ Exporter v0.97b - (c)2007 guruware
# File Created: 10.11.2018 14:56:08

#
# object Cylinder005
#

v  -0.132852 4.643178 0.302223
v  -0.132852 4.767071 0.330501
v  -0.132852 4.866426 0.409733
v  -0.132852 4.921563 0.524227
v  -0.132852 4.921563 0.651306
v  -0.132852 4.866426 0.765801
v  -0.132853 4.767071 0.845033
v  -0.132853 4.643178 0.873311
v  -0.132853 4.519285 0.845033
v  -0.132853 4.419930 0.765801
v  -0.132852 4.364793 0.651306
v  -0.132852 4.364793 0.524227
v  -0.132852 4.419931 0.409733
v  -0.132852 4.519285 0.330500
v  0.193570 4.643178 0.302223
v  0.193570 4.767071 0.330501
v  0.193570 4.866426 0.409733
v  0.193570 4.921563 0.524227
v  0.193570 4.921563 0.651307
v  0.193570 4.866425 0.765801
v  0.193570 4.767071 0.845033
v  0.193570 4.643178 0.873311
v  0.193570 4.519285 0.845033
v  0.193570 4.419930 0.765801
v  0.193570 4.364793 0.651306
v  0.193570 4.364793 0.524227
v  0.193570 4.419930 0.409733
v  0.193570 4.519285 0.330500
v  -0.132153 5.273306 3.206090
v  -0.132153 5.589695 3.171555
v  -0.087063 5.589695 3.171555
v  -0.087063 5.504784 3.180824
v  -0.037063 5.454275 3.186337
v  0.054577 5.454275 3.186337
v  0.104577 5.504784 3.180824
v  0.104577 5.589695 3.171555
v  0.149667 5.589695 3.171555
v  0.149667 5.273306 3.206090
v  0.104577 5.273306 3.206090
v  0.104577 5.358217 3.196822
v  0.054577 5.408726 3.191309
v  -0.037063 5.408726 3.191309
v  -0.087063 5.358217 3.196822
v  -0.087063 5.273306 3.206090
v  -0.132152 4.563194 0.803915
v  -0.132152 4.765035 0.381884
v  -0.087062 4.765035 0.381884
v  -0.087062 4.710866 0.495147
v  -0.037062 4.678644 0.562521
v  0.054578 4.678644 0.562521
v  0.104578 4.710866 0.495147
v  0.104578 4.765035 0.381884
v  0.149668 4.765035 0.381884
v  0.149668 4.563194 0.803915
v  0.104578 4.563194 0.803915
v  0.104578 4.617363 0.690652
v  0.054578 4.649586 0.623278
v  -0.037062 4.649586 0.623278
v  -0.087062 4.617363 0.690652
v  -0.087062 4.563194 0.803915
# 60 vertices

vn -0.660324 -0.325855 -0.676602
vn -0.660283 -0.587168 -0.468252
vn -0.660283 -0.732187 -0.167117
vn -0.660283 -0.732187 0.167117
vn -0.660283 -0.587168 0.468251
vn -0.660284 -0.325854 0.676643
vn -0.660283 0.000000 0.751017
vn -0.660283 0.325854 0.676643
vn -0.660283 0.587169 0.468251
vn -0.660283 0.732187 0.167117
vn -0.660283 0.732187 -0.167117
vn -0.660283 0.587169 -0.468251
vn -0.660324 0.325856 -0.676602
vn -0.660365 0.000000 -0.750945
vn -0.660365 0.000000 -0.750945
vn -0.660324 0.325856 -0.676602
vn 0.660324 0.325855 -0.676602
vn 0.660365 0.000000 -0.750945
vn -0.660324 0.325856 -0.676602
vn -0.660283 0.587169 -0.468251
vn 0.660283 0.587169 -0.468251
vn 0.660324 0.325855 -0.676602
vn -0.660283 0.587169 -0.468251
vn -0.660283 0.732187 -0.167117
vn 0.660283 0.732187 -0.167117
vn 0.660283 0.587169 -0.468251
vn -0.660283 0.732187 -0.167117
vn -0.660283 0.732187 0.167117
vn 0.660283 0.732187 0.167117
vn 0.660283 0.732187 -0.167117
vn -0.660283 0.732187 0.167117
vn -0.660283 0.587169 0.468251
vn 0.660283 0.587168 0.468251
vn 0.660283 0.732187 0.167117
vn -0.660283 0.587169 0.468251
vn -0.660283 0.325854 0.676643
vn 0.660283 0.325854 0.676643
vn 0.660283 0.587168 0.468251
vn -0.660283 0.325854 0.676643
vn -0.660283 0.000000 0.751017
vn 0.660283 -0.000000 0.751017
vn 0.660283 0.325854 0.676643
vn -0.660283 0.000000 0.751017
vn -0.660284 -0.325854 0.676643
vn 0.660283 -0.325854 0.676643
vn 0.660283 -0.000000 0.751017
vn -0.660284 -0.325854 0.676643
vn -0.660283 -0.587168 0.468251
vn 0.660283 -0.587169 0.468251
vn 0.660283 -0.325854 0.676643
vn -0.660283 -0.587168 0.468251
vn -0.660283 -0.732187 0.167117
vn 0.660283 -0.732187 0.167117
vn 0.660283 -0.587169 0.468251
vn -0.660283 -0.732187 0.167117
vn -0.660283 -0.732187 -0.167117
vn 0.660283 -0.732187 -0.167117
vn 0.660283 -0.732187 0.167117
vn -0.660283 -0.732187 -0.167117
vn -0.660283 -0.587168 -0.468252
vn 0.660283 -0.587168 -0.468251
vn 0.660283 -0.732187 -0.167117
vn -0.660283 -0.587168 -0.468252
vn -0.660324 -0.325855 -0.676602
vn 0.660324 -0.325855 -0.676602
vn 0.660283 -0.587168 -0.468251
vn -0.660324 -0.325855 -0.676602
vn -0.660365 0.000000 -0.750945
vn 0.660365 0.000000 -0.750945
vn 0.660324 -0.325855 -0.676602
vn 0.660324 -0.325855 -0.676602
vn 0.660365 0.000000 -0.750945
vn 0.660324 0.325855 -0.676602
vn 0.660283 0.587169 -0.468251
vn 0.660283 0.732187 -0.167117
vn 0.660283 0.732187 0.167117
vn 0.660283 0.587168 0.468251
vn 0.660283 0.325854 0.676643
vn 0.660283 -0.000000 0.751017
vn 0.660283 -0.325854 0.676643
vn 0.660283 -0.587169 0.468251
vn 0.660283 -0.732187 0.167117
vn 0.660283 -0.732187 -0.167117
vn 0.660283 -0.587168 -0.468251
vn -0.837559 -0.523934 0.154881
vn -0.744088 -0.640675 0.189391
vn -0.663335 0.717624 -0.212138
vn -0.423043 0.868938 -0.256868
vn -0.423043 0.868938 -0.256868
vn -0.663335 0.717624 -0.212138
vn 0.663171 0.717763 -0.212179
vn 0.423196 0.868869 -0.256848
vn 0.423196 0.868869 -0.256848
vn 0.663171 0.717763 -0.212179
vn 0.938319 0.331587 -0.098021
vn 0.978643 0.197134 -0.058275
vn 0.978643 0.197134 -0.058275
vn 0.938319 0.331587 -0.098021
vn 0.397505 0.879957 -0.260126
vn 0.448384 0.857173 -0.253390
vn 0.448384 0.857173 -0.253390
vn 0.397505 0.879957 -0.260126
vn -0.397505 0.879957 -0.260126
vn -0.448384 0.857173 -0.253391
vn -0.448384 0.857173 -0.253391
vn -0.397505 0.879957 -0.260126
vn -0.938319 0.331587 -0.098021
vn -0.978643 0.197134 -0.058276
vn -0.978643 0.197134 -0.058276
vn -0.938319 0.331587 -0.098021
vn -0.663334 0.717625 -0.212139
vn -0.423043 0.868938 -0.256869
vn -0.423043 0.868938 -0.256869
vn -0.663334 0.717625 -0.212139
vn 0.663171 0.717763 -0.212179
vn 0.423196 0.868870 -0.256848
vn 0.423196 0.868870 -0.256848
vn 0.663171 0.717763 -0.212179
vn 0.744087 -0.640675 0.189392
vn 0.837559 -0.523933 0.154881
vn 0.837559 -0.523933 0.154881
vn 0.744087 -0.640675 0.189392
vn -0.744088 -0.640675 0.189391
vn -0.837559 -0.523934 0.154881
vn -0.837559 -0.523934 0.154881
vn -0.744088 -0.640675 0.189391
vn -0.907433 -0.402958 0.119119
vn -0.825738 -0.540915 0.159901
vn -0.825738 -0.540915 0.159901
vn -0.907433 -0.402958 0.119119
vn -0.366501 -0.892249 0.263759
vn -0.278163 -0.921130 0.272297
vn -0.278163 -0.921130 0.272297
vn -0.366501 -0.892249 0.263759
vn 0.366501 -0.892249 0.263759
vn 0.278163 -0.921130 0.272297
vn 0.278163 -0.921130 0.272297
vn 0.366501 -0.892249 0.263759
vn 0.907433 -0.402959 0.119120
vn 0.825737 -0.540915 0.159901
vn 0.825737 -0.540915 0.159901
vn 0.907433 -0.402959 0.119120
vn 0.744088 -0.640675 0.189391
vn 0.837559 -0.523933 0.154881
vn 0.837559 -0.523933 0.154881
vn 0.744088 -0.640675 0.189391
vn -0.744088 -0.640675 0.189391
vn -0.837559 -0.523934 0.154881
# 148 vertex normals

vt 0.750000 0.354227 1.025717
vt 0.819861 0.354227 1.020925
vt 0.890882 0.354227 1.010075
vt 0.963399 0.354227 1.001289
vt 0.036601 0.354227 1.001289
vt 0.109118 0.354227 1.010075
vt 0.180139 0.354227 1.020925
vt 0.250000 0.354227 1.025717
vt 0.319861 0.354227 1.020925
vt 0.390882 0.354227 1.010075
vt 0.463399 0.354227 1.001289
vt 0.536601 0.354227 1.001289
vt 0.609118 0.354227 1.010075
vt 0.680139 0.354227 1.020925
vt 0.750000 0.645773 1.025717
vt 0.819861 0.645773 1.020925
vt 0.890882 0.645773 1.010075
vt 0.963399 0.645773 1.001289
vt 0.036601 0.645773 1.001289
vt 0.109118 0.645773 1.010075
vt 0.180139 0.645773 1.020925
vt 0.250000 0.645773 1.025717
vt 0.319861 0.645773 1.020925
vt 0.390882 0.645773 1.010075
vt 0.463399 0.645773 1.001289
vt 0.536601 0.645773 1.001289
vt 0.609118 0.645773 1.010075
vt 0.680139 0.645773 1.020925
vt 0.283058 0.962069 -0.072886
vt 0.500000 1.012858 -0.072886
vt 0.109084 0.819762 -0.072886
vt 0.012536 0.614122 -0.072886
vt 0.012536 0.385878 -0.072886
vt 0.109084 0.180238 -0.072886
vt 0.283058 0.037931 -0.072886
vt 0.500000 -0.012858 -0.072886
vt 0.716942 0.037930 -0.072886
vt 0.890916 0.180238 -0.072886
vt 0.987464 0.385878 -0.072886
vt 0.987464 0.614122 -0.072886
vt 0.890916 0.819762 -0.072886
vt 0.716942 0.962070 -0.072886
vt -0.036601 0.354227 1.001289
vt -0.036601 0.645773 1.001289
vt 0.500000 1.012858 0.072886
vt 0.283058 0.962069 0.072886
vt 0.109084 0.819762 0.072886
vt 0.012536 0.614122 0.072886
vt 0.012536 0.385878 0.072886
vt 0.109084 0.180238 0.072886
vt 0.283058 0.037931 0.072886
vt 0.500000 -0.012858 0.072886
vt 0.716942 0.037930 0.072886
vt 0.890916 0.180238 0.072886
vt 0.987464 0.385878 0.072886
vt 0.987464 0.614122 0.072886
vt 0.890916 0.819762 0.072886
vt 0.716942 0.962070 0.072886
vt 2.405855 2.866996 2.093940
vt 2.385367 3.077922 2.093940
vt 1.614632 2.093940 3.077922
vt 1.614632 2.063880 3.077922
vt 1.614632 3.077922 2.063880
vt 1.609134 3.021315 2.063880
vt 1.609134 3.021315 2.063880
vt 1.605863 2.987643 2.030547
vt 1.605863 2.030547 2.987643
vt 1.605863 1.969453 2.987643
vt 2.394136 2.987643 1.969453
vt 2.390866 3.021315 1.936120
vt 2.390866 3.021315 1.936120
vt 2.385367 3.077922 1.936120
vt 1.614632 1.936120 3.077922
vt 1.614632 1.906060 3.077922
vt 1.614632 3.077922 1.906060
vt 1.594145 2.866996 1.906060
vt 2.405855 1.906060 2.866996
vt 2.405855 1.936120 2.866996
vt 2.405855 2.866996 1.936120
vt 2.400357 2.923604 1.936120
vt 2.400357 2.923604 1.936120
vt 2.397086 2.957276 1.969453
vt 2.397086 1.969453 2.957276
vt 2.397086 2.030547 2.957276
vt 1.602914 2.957276 2.030547
vt 1.599643 2.923604 2.063880
vt 1.599643 2.923604 2.063880
vt 1.594145 2.866996 2.063880
vt 2.405855 2.063880 2.866996
vt 2.405855 2.093940 2.866996
vt 0.980785 2.393589 2.093940
vt 0.980785 2.093940 2.393589
vt 0.730419 2.528149 2.093940
vt 3.269581 2.093940 2.528149
vt 3.269581 2.063880 2.528149
vt 3.269581 2.528149 2.063880
vt 3.202389 2.492037 2.063880
vt 3.202389 2.492037 2.063880
vt 3.162420 2.470555 2.030547
vt 3.162420 2.030547 2.470555
vt 3.162420 1.969453 2.470555
vt 0.837580 2.470555 1.969453
vt 0.797611 2.492037 1.936120
vt 0.797611 2.492037 1.936120
vt 0.730419 2.528149 1.936120
vt 3.269581 1.936120 2.528149
vt 3.269581 1.906060 2.528149
vt 3.269581 2.528149 1.906060
vt 3.019215 2.393589 1.906060
vt 0.980785 1.906060 2.393589
vt 0.980785 1.936120 2.393589
vt 0.980785 2.393589 1.936120
vt 0.913593 2.429701 1.936120
vt 0.913593 2.429701 1.936120
vt 0.873624 2.451183 1.969453
vt 0.873624 1.969453 2.451183
vt 0.873624 2.030547 2.451183
vt 3.126376 2.451183 2.030547
vt 3.086407 2.429701 2.063880
vt 3.086407 2.429701 2.063880
vt 3.019215 2.393589 2.063880
vt 0.980785 2.063880 2.393589
# 122 texture coords

o Cylinder005
g Cylinder005
s 1
f 14/42/1 13/41/2 12/40/3 11/39/4 10/38/5 9/37/6 8/36/7 7/35/8 6/34/9 5/33/10 4/32/11 3/31/12 2/29/13 1/30/14 
s 8
f 1/1/15 2/2/16 16/16/17 15/15/18 
f 2/2/19 3/3/20 17/17/21 16/16/22 
f 3/3/23 4/4/24 18/18/25 17/17/26 
f 4/43/27 5/5/28 19/19/29 18/44/30 
f 5/5/31 6/6/32 20/20/33 19/19/34 
f 6/6/35 7/7/36 21/21/37 20/20/38 
f 7/7/39 8/8/40 22/22/41 21/21/42 
f 8/8/43 9/9/44 23/23/45 22/22/46 
f 9/9/47 10/10/48 24/24/49 23/23/50 
f 10/10/51 11/11/52 25/25/53 24/24/54 
f 11/11/55 12/12/56 26/26/57 25/25/58 
f 12/12/59 13/13/60 27/27/61 26/26/62 
f 13/13/63 14/14/64 28/28/65 27/27/66 
f 14/14/67 1/1/68 15/15/69 28/28/70 
s 1
f 28/58/71 15/45/72 16/46/73 17/47/74 18/48/75 19/49/76 20/50/77 21/51/78 22/52/79 23/53/80 24/54/81 25/55/82 26/56/83 27/57/84 
s 264
f 45/91/85 29/59/86 30/60/87 46/93/88 
s 544
f 46/94/89 30/61/90 31/62/91 47/95/92 
s 1040
f 47/96/93 31/63/94 32/64/95 48/97/96 
s 544
f 48/98/97 32/65/98 33/66/99 49/99/100 
s 1040
f 49/100/101 33/67/102 34/68/103 50/101/104 
s 544
f 50/102/105 34/69/106 35/70/107 51/103/108 
s 1040
f 51/104/109 35/71/110 36/72/111 52/105/112 
s 544
f 52/106/113 36/73/114 37/74/115 53/107/116 
s 1040
f 53/108/117 37/75/118 38/76/119 54/109/120 
s 544
f 54/110/121 38/77/122 39/78/123 55/111/124 
s 1040
f 55/112/125 39/79/126 40/80/127 56/113/128 
s 544
f 56/114/129 40/81/130 41/82/131 57/115/132 
s 1040
f 57/116/133 41/83/134 42/84/135 58/117/136 
s 544
f 58/118/137 42/85/138 43/86/139 59/119/140 
s 1056
f 59/120/141 43/87/142 44/88/143 60/121/144 
s 528
f 60/122/145 44/89/146 29/90/147 45/92/148 
# 32 polygons

